<svg xmlns="http://www.w3.org/2000/svg" fill="none" viewBox="0 0 104 26">
    <path fill="#555248" d="M30.1361 9.336c.48 0 .888.068 1.224.204.336.136.664.328.984.576.088.072.164.108.228.108.16 0 .264-.24.312-.72h.276c-.032.52-.048 1.44-.048 2.76h-.276c-.088-.52-.168-.892-.24-1.116-.072-.232-.192-.452-.36-.66-.24-.312-.548-.544-.924-.696-.368-.16-.768-.24-1.2-.24-.52 0-.976.172-1.368.516-.384.344-.684.836-.9 1.476-.216.632-.324 1.376-.324 2.232 0 .872.116 1.62.348 2.244.232.624.552 1.1.96 1.428.416.32.884.48 1.404.48.4 0 .788-.076 1.164-.228.376-.152.672-.38.888-.684.16-.224.276-.464.348-.72.072-.256.14-.648.204-1.176h.276c0 1.376.016 2.336.048 2.88h-.276c-.024-.256-.06-.436-.108-.54-.04-.112-.1-.168-.18-.168-.064 0-.148.032-.252.096-.36.256-.704.452-1.032.588-.328.128-.724.192-1.188.192-.76 0-1.428-.172-2.004-.516-.568-.344-1.012-.84-1.332-1.488-.312-.656-.468-1.436-.468-2.34 0-.88.16-1.66.48-2.34.328-.68.78-1.208 1.356-1.584.584-.376 1.244-.564 1.98-.564zm9.9417 0c.76 0 1.424.172 1.992.516.576.344 1.02.844 1.332 1.5.32.648.48 1.424.48 2.328 0 .88-.164 1.66-.492 2.34-.32.68-.772 1.208-1.356 1.584-.576.376-1.232.564-1.968.564-.76 0-1.428-.172-2.004-.516-.568-.344-1.012-.84-1.332-1.488-.312-.656-.468-1.436-.468-2.34 0-.88.16-1.66.48-2.34.328-.68.78-1.208 1.356-1.584.584-.376 1.244-.564 1.98-.564zm-.048.216c-.512 0-.964.18-1.356.54-.384.352-.684.848-.9 1.488-.208.64-.312 1.372-.312 2.196 0 .832.116 1.564.348 2.196.24.632.56 1.12.96 1.464.4.344.848.516 1.344.516.512 0 .96-.176 1.344-.528.392-.36.692-.86.9-1.5.216-.64.324-1.372.324-2.196 0-.832-.12-1.564-.36-2.196-.232-.632-.548-1.12-.948-1.464-.4-.344-.848-.516-1.344-.516zm14.1168.192c-.28.016-.488.06-.624.132-.136.064-.228.176-.276.336-.048.152-.072.38-.072.684v7.164h-.276l-5.04-7.788v6.336c0 .312.024.544.072.696.056.152.16.264.312.336.152.064.388.104.708.12V18c-.288-.024-.696-.036-1.224-.036-.48 0-.852.012-1.116.036v-.24c.28-.016.488-.056.624-.12.136-.072.228-.184.276-.336.048-.16.072-.392.072-.696v-5.832c0-.304-.024-.524-.072-.66-.048-.136-.14-.228-.276-.276-.128-.048-.336-.08-.624-.096v-.24c.264.024.636.036 1.116.036.36 0 .672-.012.936-.036l4.236 6.528v-5.136c0-.312-.028-.544-.084-.696-.048-.152-.148-.26-.3-.324-.152-.072-.388-.116-.708-.132v-.24c.288.024.696.036 1.224.036.48 0 .852-.012 1.116-.036v.24zm11.1866 8.604c-.176.608-.428 1.064-.756 1.368-.392.36-.932.54-1.62.54-.368 0-.728-.056-1.08-.168-.352-.112-.796-.288-1.332-.528-.592-.256-1.076-.448-1.452-.576l-.288-.084c-.344.12-.676.18-.996.18-.368 0-.552-.08-.552-.24 0-.168.216-.252.648-.252.28 0 .58.032.9.096.256-.072.552-.184.888-.336.208-.096.364-.164.468-.204-.68-.064-1.272-.276-1.776-.636-.496-.36-.884-.852-1.164-1.476-.272-.632-.408-1.368-.408-2.208 0-.88.16-1.66.48-2.34.328-.68.78-1.208 1.356-1.584.584-.376 1.244-.564 1.98-.564.76 0 1.424.172 1.992.516.576.344 1.02.844 1.332 1.5.32.648.48 1.424.48 2.328 0 .832-.144 1.576-.432 2.232-.288.648-.692 1.168-1.212 1.56-.52.384-1.116.608-1.788.672v.012c-.192.024-.36.056-.504.096-.136.048-.32.12-.552.216-.288.128-.528.22-.72.276.888.176 1.64.316 2.256.42.624.104 1.14.156 1.548.156.568 0 1.016-.084 1.344-.252.336-.16.596-.424.78-.792l.18.072zm-7.32-4.572c0 .832.116 1.564.348 2.196.24.632.56 1.12.96 1.464.4.344.848.516 1.344.516.512 0 .96-.176 1.344-.528.392-.36.692-.86.9-1.5.216-.64.324-1.372.324-2.196 0-.832-.12-1.564-.36-2.196-.232-.632-.548-1.12-.948-1.464-.4-.344-.848-.516-1.344-.516-.512 0-.964.18-1.356.54-.384.352-.684.848-.9 1.488-.208.64-.312 1.372-.312 2.196zm16.5282-4.032c-.28.016-.488.06-.624.132-.136.064-.228.176-.276.336-.048.152-.072.38-.072.684v3.612c0 .576-.04 1.072-.12 1.488-.072.408-.196.76-.372 1.056-.2.344-.496.616-.888.816-.384.2-.82.3-1.308.3-.88 0-1.552-.216-2.016-.648-.352-.328-.588-.7-.708-1.116-.12-.416-.18-1.036-.18-1.86v-3.768c0-.304-.024-.524-.072-.66-.048-.136-.14-.228-.276-.276-.128-.048-.336-.08-.624-.096v-.24c.336.024.848.036 1.536.036.648 0 1.156-.012 1.524-.036v.24c-.288.016-.5.048-.636.096-.128.048-.216.14-.264.276-.048.136-.072.356-.072.66v3.972c0 .64.044 1.172.132 1.596.088.424.268.764.54 1.02.28.256.688.384 1.224.384.848 0 1.444-.272 1.788-.816.344-.544.516-1.308.516-2.292v-3.744c0-.432-.08-.728-.24-.888-.152-.16-.436-.248-.852-.264v-.24c.288.024.696.036 1.224.036.48 0 .852-.012 1.116-.036v.24zm8.6477 6.72c0 .456.028.968.084 1.536-.544-.024-1.46-.036-2.748-.036-1.536 0-2.696.012-3.48.036v-.24c.288-.016.496-.048.624-.096.136-.048.228-.14.276-.276.048-.136.072-.356.072-.66v-5.952c0-.304-.024-.524-.072-.66-.048-.136-.14-.228-.276-.276-.128-.048-.336-.08-.624-.096v-.24c.784.024 1.944.036 3.48.036 1.176 0 2.012-.012 2.508-.036-.056.528-.084 1-.084 1.416 0 .312.012.56.036.744h-.276c-.056-.52-.128-.904-.216-1.152-.088-.256-.236-.44-.444-.552-.208-.12-.524-.18-.948-.18h-.996c-.288 0-.5.024-.636.072-.128.04-.216.128-.264.264-.048.136-.072.356-.072.66v2.832h.792c.28 0 .496-.064.648-.192.152-.136.252-.292.3-.468.056-.184.1-.412.132-.684l.036-.24h.276c-.024.336-.036.712-.036 1.128v.576c0 .408.024.976.072 1.704h-.276c-.008-.056-.032-.248-.072-.576-.04-.336-.152-.588-.336-.756-.176-.168-.424-.252-.744-.252h-.792v2.88c0 .304.024.524.072.66.048.136.136.228.264.276.136.04.348.06.636.06h.876c.496 0 .872-.064 1.128-.192.264-.136.456-.348.576-.636.12-.296.208-.728.264-1.296h.276c-.024.216-.036.504-.036.864zm5.4165-7.092c.352 0 .628.04.828.12.208.072.42.18.636.324.176.112.312.168.408.168.072 0 .128-.04.168-.12.04-.088.072-.224.096-.408h.276c-.04.464-.06 1.28-.06 2.448h-.276c-.048-.648-.236-1.192-.564-1.632-.32-.448-.788-.672-1.404-.672-.432 0-.784.132-1.056.396-.272.256-.408.588-.408.996 0 .304.068.568.204.792.144.224.324.416.54.576.216.16.524.364.924.612l.348.216c.504.312.9.588 1.188.828.296.232.532.5.708.804.176.304.264.66.264 1.068 0 .728-.24 1.292-.72 1.692-.48.392-1.088.588-1.824.588-.384 0-.7-.04-.948-.12-.24-.08-.472-.188-.696-.324-.176-.112-.312-.168-.408-.168-.072 0-.128.044-.168.132-.04.08-.072.212-.096.396h-.276c.032-.44.048-1.4.048-2.88h.276c.056.808.256 1.464.6 1.968s.872.756 1.584.756c.432 0 .8-.132 1.104-.396.304-.272.456-.672.456-1.2 0-.448-.152-.828-.456-1.14-.296-.312-.768-.664-1.416-1.056-.472-.288-.856-.544-1.152-.768-.288-.224-.524-.492-.708-.804-.184-.32-.276-.692-.276-1.116 0-.672.216-1.184.648-1.536.432-.36.968-.54 1.608-.54zm12.1924.132c-.056.568-.084 1.08-.084 1.536 0 .4.012.728.036.984h-.276c-.064-.616-.144-1.072-.24-1.368-.096-.304-.2639-.524-.5039-.66-.24-.144-.608-.216-1.104-.216h-.648v6.828c0 .336.032.58.096.732.064.152.176.256.336.312.16.056.42.092.78.108V18c-.416-.024-1.004-.036-1.764-.036-.8 0-1.392.012-1.776.036v-.24c.36-.016.62-.052.78-.108.16-.056.272-.16.336-.312s.096-.396.096-.732V9.78h-.648c-.496 0-.864.072-1.104.216-.24.136-.408.356-.504.66-.096.296-.176.752-.24 1.368h-.276c.024-.256.036-.584.036-.984 0-.456-.028-.968-.084-1.536.664.024 1.792.036 3.384.036 1.584 0 2.7079-.012 3.3719-.036z"/>
    <path stroke="url(#paint0_linear)" d="M21.6818 15.534c-.579 1.8413-1.8676 4.1233-4.3901 5.4759-1.5635.8383-3.2611 1.1729-4.9086 1.0606l.0426-18.12793c.0521-.00429.1044-.00819.1568-.01168.4856-.00354 1.084.01809 1.6975.0878.2736.03109.5447.07118.8063.12128.5724.13558 1.1311.32622 1.6677.56936 1.7563.79584 3.2741 2.15355 4.2559 3.98465.8104 1.51122 1.1499 3.14762 1.0704 4.74262-.0331.5376-.1535 1.2786-.3985 2.0974zM11.4254 4.07455l-.042 17.87205c-2.63947-.4763-5.04248-2.109-6.40764-4.655-2.37418-4.4277-.70946-9.94169 3.71825-12.31587.57307-.30729 1.55229-.68784 2.73139-.90118z"/>
    <defs>
        <linearGradient id="paint0_linear" x1="3.75599" x2="23.9646" y1="11.7231" y2="12.9918" gradientUnits="userSpaceOnUse">
            <stop offset=".288448" stop-color="#555248"/>
            <stop offset=".780176" stop-color="#1B1A17" stop-opacity="0"/>
        </linearGradient>
    </defs>
</svg>
