<svg xmlns="http://www.w3.org/2000/svg" viewBox="0 0 18 16">
    <path d="M17.8961 3.05165c-.103-.13948-.2688-.22569-.4489-.23295L6.28162 2.36414c-.32036-.01324-.58807.22035-.60176.52152-.01362.30104.23331.55541.55214.56835l10.4096.42382-2.0467 6.03139H5.48658L3.84103 1.44688c-.03617-.18547-.17099-.3402-.35693-.4091L.788965.0377747C.491928-.0720606.156743.0657377.0400874.345938-.0763672.62629.0694931.943051.36637 1.05323l2.3964.88914 1.67459 8.61083c.05048.2589.28935.4469.56814.4469h.27778l-.63432 1.6641c-.05309.1394-.03121.2942.05914.4153.09023.1211.23698.1932.39363.1932h.44491c-.27569.2898-.44491.6713-.44491 1.0909 0 .9024.7774 1.6364 1.7326 1.6364.9552 0 1.7326-.734 1.7326-1.6364 0-.4195-.16922-.8011-.44487-1.0909h3.77754c-.2759.2898-.445.6713-.445 1.0909 0 .9024.7772 1.6364 1.7326 1.6364.9554 0 1.7326-.734 1.7326-1.6364 0-.4195-.1692-.8011-.4448-1.0909h.541c.2659 0 .4813-.2035.4813-.4545 0-.2511-.2154-.4546-.4813-.4546H5.78652L6.30624 11H15.016c.2512 0 .4734-.1533.5499-.379l2.4064-7.09102c.0552-.16184.0269-.33879-.0762-.47833zM6.83437 15.0911c-.42469 0-.77007-.3262-.77007-.7273 0-.4011.34538-.7273.77007-.7273s.77003.3262.77003.7273c0 .4011-.34534.7273-.77003.7273zm6.35283 0c-.4247 0-.7701-.3262-.7701-.7273 0-.4011.3454-.7273.7701-.7273s.77.3262.77.7273c0 .4011-.3453.7273-.77.7273z"/>
</svg>
