<svg xmlns="http://www.w3.org/2000/svg" viewBox="0 0 21 18">
    <path d="M19.9686 5.77104c-.2774-2.76479-2.438-4.77071-5.142-4.77071-1.8015 0-3.4509.87802-4.3791 2.28524C9.52779 1.86015 7.94594 1 6.17335 1 3.4697 1 1.30868 3.00592 1.0317 5.77071c-.02193.12212-.111818.76484.16151 1.81297.39391 1.5118 1.30377 2.88692 2.63057 3.97572L10.4431 17l6.733-5.4402c1.3268-1.0892 2.2367-2.46399 2.6306-3.97612.2733-1.0478.1834-1.69052.1619-1.81264zm-.8733 1.66106c-.3596 1.38074-1.1931 2.6387-2.4081 3.6355l-6.2397 5.0421-6.13262-5.0407c-1.21717-.9989-2.0503-2.25649-2.41022-3.63723-.25871-.99187-.15238-1.55218-.15201-1.55582l.00548-.03342c.23751-2.42226 2.09415-4.18062 4.41522-4.18062 1.71266 0 3.22034.95315 3.93585 2.48712l.3365.72248.3365-.72248c.7042-1.51047 2.2915-2.48679 4.0447-2.48679 2.3207 0 4.1777 1.75836 4.42 4.21206.0007.00529.1071.56593-.1516 1.5578z"/>
    <path fill-rule="evenodd" d="M.659938 5.71975C.961006 2.77873 3.2731.625 6.17335.625c1.71068 0 3.26314.75011 4.27795 2.0238C11.4847 1.38664 13.094.625331 14.8266.625331c2.9008 0 5.2125 2.153989 5.5138 5.095199.0319.19239.1098.88198-.1708 1.9578-.4159 1.5964-1.3739 3.03717-2.7555 4.17127l-.0023.0019-6.9707 5.6322-6.85522-5.6344C2.20433 10.7155 1.2462 9.27427.83034 7.6783M.659938 5.71975c-.032641.1941-.109871.88373.170402 1.95855zM10.4297 3.94958c.0054.01126.0107.02254.016.03386.0079-.01683.0159-.03359.0239-.05029l-.0255.03875-.0144-.02232zM6.17335 2.03691c-2.11372 0-3.82189 1.59728-4.04201 3.84221l-.00119.0121-.00745.04541c-.00662.04538-.02033.1514-.01629.33855.0051.23618.03935.59513.1611 1.06195.33789 1.29619 1.12272 2.48796 2.28526 3.44197l5.89673 4.8469 5.9999-4.8483.001-.0009c1.1597-.95176 1.9445-2.14343 2.282-3.4392.1217-.4668.156-.82596.1611-1.06238.0048-.22845-.0171-.34473-.018-.3495l-.0011-.00735-.0007-.00722c-.2249-2.27825-1.935-3.87391-4.0468-3.87391-1.617 0-3.0662.90035-3.7048 2.27024l-.6764 1.45212-.6764-1.45206c-.65301-1.39989-2.02695-2.27063-3.59595-2.27063z" clip-rule="evenodd"/>
</svg>
