<svg xmlns="http://www.w3.org/2000/svg" viewBox="0 0 24 24">
    <path fill-rule="evenodd" d="M10.639 13.2467c-3.27456.3552-7.97237 1.8891-7.97237 4.5865v3.5H21.3333v-3.5c0-2.6974-4.6978-4.2313-7.9724-4.5865-.4928-.0534-.9534-.0802-1.3609-.0802s-.8681.0268-1.361.0802zm.1052-1.4176c.3995.1113.8207.1707 1.2558.1707.4351 0 .8562-.0594 1.2557-.1707 1.9679-.548 3.4109-2.35269 3.4109-4.49593 0-2.57833-2.0883-4.66667-4.6666-4.66667-2.57837 0-4.66671 2.08834-4.66671 4.66667 0 2.14324 1.44299 3.94793 3.41091 4.49593zm9.1891 8.1041v-2.1c0-.2617-.12-.5944-.5698-1.0096-.4594-.424-1.1628-.8328-2.0494-1.1879-1.7753-.7112-3.9317-1.0692-5.3141-1.0692-1.3825 0-3.53889.358-5.31421 1.0692-.88654.3551-1.58999.7639-2.04936 1.1879-.44986.4152-.5698.7479-.5698 1.0096v2.1H19.9333zM12 4.0665c-1.8052 0-3.26671 1.46154-3.26671 3.26667 0 1.80514 1.46151 3.26663 3.26671 3.26663 1.8051 0 3.2666-1.46149 3.2666-3.26663 0-1.80513-1.4615-3.26667-3.2666-3.26667z" clip-rule="evenodd"/>
</svg>
