<svg xmlns="http://www.w3.org/2000/svg" viewBox="0 0 24 24">
    <path fill-rule="evenodd" d="M9.6 11.6H4.4V4.4h5.2v7.2zm0 8v-3.2H4.4v3.2h5.2zm10 0v-7.2h-5.2v7.2h5.2zm-5.2-12h5.2V4.4h-5.2v3.2zM4 13c-.55228 0-1-.4477-1-1V4c0-.55228.44772-1 1-1h6c.5523 0 1 .44772 1 1v8c0 .5523-.4477 1-1 1H4zm0 8c-.55228 0-1-.4477-1-1v-4c0-.5523.44772-1 1-1h6c.5523 0 1 .4477 1 1v4c0 .5523-.4477 1-1 1H4zm10 0c-.5523 0-1-.4477-1-1v-8c0-.5523.4477-1 1-1h6c.5523 0 1 .4477 1 1v8c0 .5523-.4477 1-1 1h-6zM13 4c0-.55228.4477-1 1-1h6c.5523 0 1 .44772 1 1v4c0 .55228-.4477 1-1 1h-6c-.5523 0-1-.44772-1-1V4z" clip-rule="evenodd"/>
</svg>
