<svg xmlns="http://www.w3.org/2000/svg" viewBox="0 0 20 20">
    <path d="M5.00004 8.33325c-.91667 0-1.66667.75-1.66667 1.66667 0 .91668.75 1.66668 1.66667 1.66668.91667 0 1.66667-.75 1.66667-1.66668 0-.91667-.75-1.66667-1.66667-1.66667zm9.99996 0c-.9166 0-1.6666.75-1.6666 1.66667 0 .91668.75 1.66668 1.6666 1.66668.9167 0 1.6667-.75 1.6667-1.66668 0-.91667-.75-1.66667-1.6667-1.66667zm-5 0c-.91663 0-1.66663.75-1.66663 1.66667 0 .91668.75 1.66668 1.66663 1.66668.9167 0 1.6667-.75 1.6667-1.66668 0-.91667-.75-1.66667-1.6667-1.66667z"/>
</svg>
