<svg xmlns="http://www.w3.org/2000/svg" viewBox="0 0 20 20">
    <path fill-rule="evenodd" d="M2.84163 4.99992l-.00834 9.99998c.0002.2722.22778.5.5.5H16.6666c.2724 0 .5-.2276.5-.5V4.99992c0-.27234-.2276-.5-.5-.5H3.33329c-.26473 0-.49166.22004-.49166.5zm-1.175 9.99998l.00833-9.99998c0-.91667.74167-1.66667 1.65833-1.66667H16.6666c.9167 0 1.6667.75 1.6667 1.66667v9.99998c0 .9167-.75 1.6667-1.6667 1.6667H3.33329c-.91666 0-1.66666-.75-1.66666-1.6667z" clip-rule="evenodd"/>
    <path fill-rule="evenodd" d="M2.17638 5.48528l.64715-.97072 7.17643 4.78428 7.17644-4.78428.6471.97072L9.99996 10.701 2.17638 5.48528z" clip-rule="evenodd"/>
</svg>
