<svg xmlns="http://www.w3.org/2000/svg" viewBox="0 0 16 20">
    <path fill-rule="evenodd" d="M16 17v-1l-2-2V9c0-3.07-1.64-5.64-4.5-6.32V2C9.5 1.17 8.83.5 8 .5S6.5 1.17 6.5 2v.68C3.63 3.36 2 5.92 2 9v5l-2 2v1h16zM1.41421 16H14.5858L13 14.4142V9c0-2.72037-1.4238-4.79847-3.73131-5.34712L8.5 3.47011V2c0-.27772-.22228-.5-.5-.5-.27772 0-.5.22228-.5.5v1.47075l-.76945.18231C4.41437 4.20184 3 6.26874 3 9v5.4142L1.41421 16zm4.85334 3C6.09725 18.7054 6 18.3636 6 18h4c0 .3636-.09834.7054-.26974 1-.34712.5967-.99387 1-1.73026 1-.74308 0-1.38757-.4033-1.73245-1z" clip-rule="evenodd"/>
</svg>
