<svg width="35" height="35" viewBox="0 0 35 35" fill="none" xmlns="http://www.w3.org/2000/svg">
    <path d="M28.0281 20.2514C27.2874 22.5859 25.6488 25.4738 22.4601 27.1836C20.5758 28.194 18.5387 28.6283 16.5481 28.5485L16.6022 5.48841C17.1984 5.48867 17.9131 5.51848 18.6442 5.60154C18.9947 5.64137 19.338 5.69231 19.6664 5.75501C20.3908 5.92715 21.0981 6.16871 21.7774 6.47653C24.0085 7.48751 25.9361 9.21181 27.1835 11.5383C28.2129 13.4579 28.6441 15.5354 28.5435 17.5607C28.5011 18.2443 28.3458 19.1969 28.0281 20.2514ZM14.6016 5.75158L14.5487 28.2928C11.3558 27.5984 8.47862 25.5631 6.81481 22.4602C3.79881 16.8355 5.91356 9.83085 11.5382 6.81486C12.1905 6.4651 13.2788 6.03231 14.6016 5.75158Z" stroke="url(#paint0_linear)" stroke-width="2"/>
    <defs>
        <linearGradient id="paint0_linear" x1="4.91415" y1="15.338" x2="31.354" y2="16.9979" gradientUnits="userSpaceOnUse">
            <stop offset="0.288448" stop-color="white"/>
            <stop offset="0.780176" stop-color="white" stop-opacity="0"/>
        </linearGradient>
    </defs>
</svg>
