<svg width="20" height="20" viewBox="0 0 20 20" fill="none" xmlns="http://www.w3.org/2000/svg">
    <path fill-rule="evenodd" clip-rule="evenodd" d="M19.5798 10.4593C19.5797 10.461 19.5796 10.4627 19.5795 10.4644C19.4166 13.7142 17.6045 16.8008 14.5279 18.4505C14.523 18.4532 14.5181 18.4558 14.5132 18.4584C12.7202 19.4159 10.7593 19.7464 8.88205 19.5261C8.71472 19.5064 8.54805 19.4824 8.38222 19.454C5.56455 18.9724 2.99055 17.2423 1.53508 14.5279C-0.969586 9.85684 0.78663 4.03975 5.4577 1.53508C6.41218 1.02329 7.41451 0.689396 8.42664 0.52193C8.59316 0.494379 8.75993 0.471333 8.92681 0.45274C10.6573 0.259931 12.3981 0.545993 13.9604 1.2539C13.9653 1.25615 13.9703 1.25841 13.9752 1.26067C15.8218 2.10118 17.4178 3.53165 18.4505 5.4577C19.3046 7.05056 19.6633 8.77668 19.5798 10.4593ZM9.42456 1.41237C10.8453 1.31924 12.2634 1.58285 13.5476 2.16476C15.2074 2.91685 16.6411 4.1993 17.5692 5.93026C18.3359 7.36001 18.6564 8.90668 18.5808 10.4143C18.4347 13.3285 16.8103 16.092 14.0554 17.5692C12.5669 18.3673 10.9511 18.6822 9.3843 18.5694L9.42456 1.41237ZM8.42426 1.5376L8.3846 18.4383C5.9235 17.9681 3.69123 16.4329 2.41638 14.0554C0.1727 9.87101 1.74592 4.66007 5.93026 2.41638C6.73438 1.98521 7.57492 1.69541 8.42426 1.5376Z" fill="url(#paint0_linear)"/>
    <defs>
        <linearGradient id="paint0_linear" x1="0.755987" y1="8.72312" x2="20.9646" y2="9.99184" gradientUnits="userSpaceOnUse">
            <stop offset="0.288448" stop-color="#555248"/>
            <stop offset="0.780176" stop-color="#1B1A17" stop-opacity="0"/>
        </linearGradient>
    </defs>
</svg>
